<svg width="31" height="30" viewBox="0 0 31 30" fill="none" xmlns="http://www.w3.org/2000/svg">
<path d="M10.95 30L10.35 25.2C10.025 25.075 9.71901 24.925 9.43201 24.75C9.14501 24.575 8.86351 24.3875 8.58751 24.1875L4.125 26.0625L0 18.9375L3.8625 16.0125C3.8375 15.8375 3.825 15.669 3.825 15.507V14.4945C3.825 14.3315 3.8375 14.1625 3.8625 13.9875L0 11.0625L4.125 3.9375L8.58751 5.8125C8.86251 5.6125 9.15001 5.425 9.45001 5.25C9.75001 5.075 10.05 4.925 10.35 4.8L10.95 0H19.2L19.8 4.8C20.125 4.925 20.4315 5.075 20.7195 5.25C21.0075 5.425 21.2885 5.6125 21.5625 5.8125L26.025 3.9375L30.15 11.0625L26.2875 13.9875C26.3125 14.1625 26.325 14.3315 26.325 14.4945V15.5055C26.325 15.6685 26.3 15.8375 26.25 16.0125L30.1125 18.9375L25.9875 26.0625L21.5625 24.1875C21.2875 24.3875 21 24.575 20.7 24.75C20.4 24.925 20.1 25.075 19.8 25.2L19.2 30H10.95ZM13.575 27H16.5375L17.0625 23.025C17.8375 22.825 18.5565 22.5315 19.2195 22.1445C19.8825 21.7575 20.4885 21.2885 21.0375 20.7375L24.75 22.275L26.2125 19.725L22.9875 17.2875C23.1125 16.9375 23.2 16.569 23.25 16.182C23.3 15.795 23.325 15.401 23.325 15C23.325 14.599 23.3 14.2055 23.25 13.8195C23.2 13.4335 23.1125 13.0645 22.9875 12.7125L26.2125 10.275L24.75 7.725L21.0375 9.3C20.4875 8.725 19.8815 8.244 19.2195 7.857C18.5575 7.47 17.8385 7.176 17.0625 6.975L16.575 3H13.6125L13.0875 6.975C12.3125 7.175 11.594 7.469 10.932 7.857C10.27 8.245 9.66351 8.7135 9.11251 9.2625L5.40001 7.725L3.9375 10.275L7.16251 12.675C7.03751 13.05 6.95001 13.425 6.90001 13.8C6.85001 14.175 6.82501 14.575 6.82501 15C6.82501 15.4 6.85001 15.7875 6.90001 16.1625C6.95001 16.5375 7.03751 16.9125 7.16251 17.2875L3.9375 19.725L5.40001 22.275L9.11251 20.7C9.66251 21.275 10.269 21.7565 10.932 22.1445C11.595 22.5325 12.3135 22.826 13.0875 23.025L13.575 27ZM15.15 20.25C16.6 20.25 17.8375 19.7375 18.8625 18.7125C19.8875 17.6875 20.4 16.45 20.4 15C20.4 13.55 19.8875 12.3125 18.8625 11.2875C17.8375 10.2625 16.6 9.75 15.15 9.75C13.675 9.75 12.431 10.2625 11.418 11.2875C10.405 12.3125 9.89901 13.55 9.90001 15C9.90101 16.45 10.4075 17.6875 11.4195 18.7125C12.4315 19.7375 13.675 20.25 15.15 20.25Z" fill="black"/>
</svg>
