<svg width="32" height="29" viewBox="0 0 32 29" fill="none" xmlns="http://www.w3.org/2000/svg">
<path d="M21.8667 2.69444C22.5856 3.12654 23.1804 3.7374 23.5932 4.46757C24.006 5.19774 24.2227 6.02234 24.2222 6.86111C24.2227 7.69988 24.006 8.52449 23.5932 9.25465C23.1804 9.98482 22.5856 10.5957 21.8667 11.0278M29.7778 27V26.1667C29.7778 23.0556 29.7778 21.5 29.1722 20.3111C28.6396 19.2658 27.7898 18.416 26.7445 17.8833M12.4167 11.7222C13.055 11.7222 13.6872 11.5965 14.2769 11.3522C14.8667 11.1079 15.4026 10.7498 15.854 10.2984C16.3054 9.84704 16.6635 9.31116 16.9078 8.72138C17.1521 8.1316 17.2778 7.49948 17.2778 6.86111C17.2778 6.22274 17.1521 5.59062 16.9078 5.00084C16.6635 4.41107 16.3054 3.87518 15.854 3.42379C15.4026 2.97239 14.8667 2.61432 14.2769 2.37003C13.6872 2.12574 13.055 2 12.4167 2C11.1274 2 9.89098 2.51215 8.97935 3.42379C8.06771 4.33542 7.55556 5.57186 7.55556 6.86111C7.55556 8.15036 8.06771 9.3868 8.97935 10.2984C9.89098 11.2101 11.1274 11.7222 12.4167 11.7222ZM2 26.1667V27H22.8334V26.1667C22.8334 23.0556 22.8333 21.5 22.2278 20.3111C21.6952 19.2658 20.8453 18.416 19.8 17.8833C18.6111 17.2778 17.0556 17.2778 13.9445 17.2778H10.8889C7.77778 17.2778 6.22223 17.2778 5.03334 17.8833C3.98804 18.416 3.13818 19.2658 2.60556 20.3111C2 21.5 2 23.0556 2 26.1667Z" stroke="black" stroke-width="4" stroke-linecap="round" stroke-linejoin="round"/>
</svg>
