<svg width="36" height="36" viewBox="0 0 36 36" fill="none" xmlns="http://www.w3.org/2000/svg">
<path d="M18 34C26.8368 34 34 26.8368 34 18C34 9.1632 26.8368 2 18 2C9.16321 2 2 9.1632 2 18C2 26.8368 9.16321 34 18 34Z" stroke="black" stroke-width="4" stroke-linecap="round" stroke-linejoin="round"/>
<path d="M18.0039 17.2002C19.0648 17.2002 20.0822 16.7788 20.8323 16.0286C21.5825 15.2785 22.0039 14.2611 22.0039 13.2002C22.0039 12.1393 21.5825 11.1219 20.8323 10.3718C20.0822 9.62162 19.0648 9.2002 18.0039 9.2002C16.943 9.2002 15.9256 9.62162 15.1755 10.3718C14.4253 11.1219 14.0039 12.1393 14.0039 13.2002C14.0039 14.2611 14.4253 15.2785 15.1755 16.0286C15.9256 16.7788 16.943 17.2002 18.0039 17.2002Z" stroke="black" stroke-width="4" stroke-linejoin="round"/>
<path d="M6.81445 29.4656C7.08965 25.2968 10.5585 22 14.7969 22H21.1969C25.4297 22 28.8953 25.288 29.1785 29.4488" stroke="black" stroke-width="4" stroke-linecap="round" stroke-linejoin="round"/>
</svg>
