<svg width="28" height="30" viewBox="0 0 28 30" fill="none" xmlns="http://www.w3.org/2000/svg">
<path d="M10.2632 0C12.9851 0 15.5956 1.17398 17.5203 3.26367C19.445 5.35336 20.5263 8.18759 20.5263 11.1429C20.5263 13.9029 19.5948 16.44 18.0632 18.3943L18.4895 18.8571H19.7369L27.6316 27.4286L25.2632 30L17.3684 21.4286V20.0743L16.9421 19.6114C15.0795 21.3368 12.7116 22.2849 10.2632 22.2857C7.54121 22.2857 4.93073 21.1117 3.00601 19.022C1.08129 16.9324 0 14.0981 0 11.1429C0 8.18759 1.08129 5.35336 3.00601 3.26367C4.93073 1.17398 7.54121 0 10.2632 0ZM10.2632 3.42857C6.3158 3.42857 3.1579 6.85714 3.1579 11.1429C3.1579 15.4286 6.3158 18.8571 10.2632 18.8571C14.2105 18.8571 17.3684 15.4286 17.3684 11.1429C17.3684 6.85714 14.2105 3.42857 10.2632 3.42857Z" fill="black"/>
</svg>
