<svg width="26" height="26" viewBox="0 0 26 26" fill="none" xmlns="http://www.w3.org/2000/svg">
<path fill-rule="evenodd" clip-rule="evenodd" d="M25.5984 3.8447V19.4447C25.598 20.2088 25.3545 20.953 24.9031 21.5695C24.4517 22.186 23.8159 22.643 23.0875 22.8741C22.3592 23.1053 21.5763 23.0987 20.8519 22.8554C20.1276 22.612 19.4995 22.1445 19.0585 21.5205C18.6175 20.8965 18.3865 20.1484 18.3989 19.3843C18.4113 18.6203 18.6665 17.8801 19.1275 17.2707C19.5886 16.6614 20.2315 16.2145 20.9634 15.9948C21.6953 15.7751 22.478 15.794 23.1984 16.0487V6.2447H13.5984V21.8447C13.598 22.6088 13.3545 23.353 12.9031 23.9695C12.4517 24.586 11.8159 25.043 11.0875 25.2741C10.3592 25.5053 9.57627 25.4987 8.85194 25.2554C8.12761 25.012 7.4995 24.5445 7.05851 23.9205C6.61751 23.2965 6.3865 22.5484 6.39891 21.7843C6.41133 21.0203 6.66651 20.2801 7.12755 19.6707C7.58858 19.0614 8.23155 18.6145 8.9634 18.3948C9.69525 18.1751 10.478 18.194 11.1984 18.4487V3.8447C11.1984 3.20818 11.4513 2.59773 11.9014 2.14765C12.3515 1.69756 12.9619 1.4447 13.5984 1.4447H23.1984C23.835 1.4447 24.4454 1.69756 24.8955 2.14765C25.3456 2.59773 25.5984 3.20818 25.5984 3.8447Z" fill="white"/>
<path d="M9.39766 6.2447H6.39766V9.2447C6.39766 9.40383 6.33444 9.55645 6.22192 9.66897C6.1094 9.78149 5.95679 9.8447 5.79766 9.8447C5.63853 9.8447 5.48591 9.78149 5.37339 9.66897C5.26087 9.55645 5.19766 9.40383 5.19766 9.2447V6.2447H2.19766C2.03853 6.2447 1.88591 6.18149 1.77339 6.06897C1.66087 5.95644 1.59766 5.80383 1.59766 5.6447C1.59766 5.48557 1.66087 5.33296 1.77339 5.22044C1.88591 5.10792 2.03853 5.0447 2.19766 5.0447H5.19766V2.0447C5.19766 1.88557 5.26087 1.73296 5.37339 1.62044C5.48591 1.50792 5.63853 1.4447 5.79766 1.4447C5.95679 1.4447 6.1094 1.50792 6.22192 1.62044C6.33444 1.73296 6.39766 1.88557 6.39766 2.0447V5.0447H9.39766C9.55679 5.0447 9.7094 5.10792 9.82192 5.22044C9.93444 5.33296 9.99766 5.48557 9.99766 5.6447C9.99766 5.80383 9.93444 5.95644 9.82192 6.06897C9.7094 6.18149 9.55679 6.2447 9.39766 6.2447Z" fill="white" stroke="white" stroke-width="2"/>
</svg>
