<svg width="21" height="20" viewBox="0 0 21 20" fill="none" xmlns="http://www.w3.org/2000/svg">
<path d="M13.3253 19.0608C10.7066 19.7757 8.23091 19.467 5.8982 18.1348C3.56549 16.8026 2.04169 14.8271 1.3268 12.2084C0.675378 9.82221 0.88797 7.54026 1.96457 5.36257C3.04318 3.18602 4.68682 1.62621 6.8955 0.683125C6.95912 0.665757 7.02221 0.651067 7.08476 0.639055C7.14731 0.627042 7.20922 0.617315 7.27049 0.609873C7.02443 1.2729 6.87818 1.97536 6.83173 2.71725C6.78529 3.45913 6.86349 4.2016 7.06633 4.94463C7.6382 7.03944 8.85702 8.61961 10.7228 9.68515C12.5886 10.7507 14.5693 10.9978 16.6651 10.4265C17.4129 10.2224 18.0933 9.91216 18.7063 9.49583C19.3201 9.07929 19.8422 8.59875 20.2725 8.05422C20.298 8.11055 20.3215 8.16871 20.3429 8.22869C20.3643 8.28867 20.3832 8.35018 20.3996 8.41324C20.7248 10.7915 20.2236 12.9977 18.896 15.0321C17.5684 17.0665 15.7123 18.4091 13.3253 19.0608Z" fill="#68C56F"/>
</svg>
