<svg width="23" height="23" viewBox="0 0 23 23" fill="none" xmlns="http://www.w3.org/2000/svg">
<path d="M3.6842 8.24094L1.65022 7.16719C1.47041 7.07227 1.33566 6.9098 1.27564 6.71553C1.21561 6.52126 1.23522 6.3111 1.33014 6.13128C1.42507 5.95147 1.58753 5.81673 1.7818 5.7567C1.97608 5.69668 2.18623 5.71628 2.36605 5.81121L4.40003 6.88495C4.57984 6.97987 4.71459 7.14234 4.77461 7.33661C4.83464 7.53088 4.81503 7.74104 4.72011 7.92086C4.62518 8.10067 4.46272 8.23541 4.26844 8.29544C4.07417 8.35547 3.86402 8.33586 3.6842 8.24094ZM6.0761 8.63669C5.50979 9.70944 5.2743 10.926 5.39942 12.1326C5.52454 13.3392 6.00465 14.4816 6.77903 15.4153C7.55341 16.3491 8.58728 17.0322 9.7499 17.3783C10.9125 17.7245 12.1517 17.7181 13.3107 17.36C14.4697 17.0019 15.4965 16.3081 16.2612 15.3665C17.0259 14.4248 17.4942 13.2775 17.6069 12.0697C17.7195 10.8619 17.4715 9.64779 16.8942 8.58093C16.3168 7.51407 15.4361 6.64236 14.3634 6.07605C12.9245 5.31848 11.2439 5.16262 9.69022 5.64267C8.13658 6.12272 6.83681 7.19948 6.0761 8.63669ZM3.43924 14.7935C3.63361 14.7335 3.79617 14.5987 3.89115 14.4187C3.98613 14.2388 4.00574 14.0286 3.94568 13.8342C3.88562 13.6398 3.75081 13.4772 3.57089 13.3823C3.39098 13.2873 3.1807 13.2677 2.98632 13.3277L0.914509 13.9679C0.72013 14.0279 0.557572 14.1628 0.462594 14.3427C0.367617 14.5226 0.348 14.7329 0.40806 14.9272C0.46812 15.1216 0.602936 15.2842 0.782851 15.3792C0.962766 15.4741 1.17304 15.4938 1.36742 15.4337L3.43924 14.7935ZM13.3278 20.0137L13.9679 22.0855C14.028 22.2799 14.1628 22.4425 14.3427 22.5374C14.5226 22.6324 14.7329 22.652 14.9273 22.592C15.1217 22.5319 15.2842 22.3971 15.3792 22.2172C15.4742 22.0373 15.4938 21.827 15.4337 21.6326L14.7936 19.5608C14.7638 19.4646 14.7154 19.3751 14.6511 19.2976C14.5868 19.22 14.5079 19.1559 14.4188 19.1089C14.3297 19.0619 14.2322 19.0328 14.1319 19.0235C14.0316 19.0141 13.9305 19.0246 13.8342 19.0544C13.738 19.0841 13.6485 19.1325 13.571 19.1968C13.4934 19.2611 13.4293 19.3401 13.3823 19.4291C13.3353 19.5182 13.3063 19.6157 13.2969 19.716C13.2875 19.8163 13.298 19.9175 13.3278 20.0137ZM9.6174 3.57065C9.66449 3.48163 9.69357 3.3842 9.703 3.28393C9.71242 3.18366 9.70199 3.08252 9.67232 2.98628L9.03216 0.914467C8.9721 0.720088 8.83728 0.55753 8.65737 0.462552C8.47745 0.367575 8.26718 0.347958 8.0728 0.408018C7.87842 0.468078 7.71586 0.602895 7.62088 0.78281C7.5259 0.962725 7.50629 1.173 7.56635 1.36738L8.20651 3.43919C8.25121 3.58418 8.33794 3.71264 8.45569 3.80831C8.57344 3.90398 8.71694 3.96256 8.868 3.97663C9.01907 3.99071 9.17091 3.95965 9.30432 3.88738C9.43772 3.81511 9.54668 3.70488 9.6174 3.57065ZM19.5608 8.20646C19.3665 8.26652 19.2039 8.40134 19.1089 8.58125C19.014 8.76117 18.9943 8.97145 19.0544 9.16582C19.1145 9.3602 19.2493 9.52276 19.4292 9.61774C19.6091 9.71272 19.8194 9.73233 20.0138 9.67227L22.0856 9.03212C22.1818 9.00238 22.2713 8.95397 22.3488 8.88967C22.4263 8.82536 22.4905 8.74641 22.5375 8.65732C22.5845 8.56824 22.6135 8.47076 22.6229 8.37046C22.6323 8.27016 22.6218 8.169 22.592 8.07275C22.5623 7.97651 22.5139 7.88706 22.4496 7.80952C22.3853 7.73198 22.3063 7.66787 22.2172 7.62084C22.1281 7.57381 22.0307 7.54479 21.9304 7.53543C21.8301 7.52608 21.7289 7.53657 21.6327 7.5663L19.5608 8.20646ZM7.9209 18.2799C7.74108 18.185 7.53092 18.1654 7.33665 18.2254C7.14238 18.2855 6.97992 18.4202 6.88499 18.6L5.81125 20.634C5.71632 20.8138 5.69672 21.024 5.75674 21.2182C5.81677 21.4125 5.95151 21.575 6.13133 21.6699C6.31114 21.7648 6.5213 21.7844 6.71557 21.7244C6.90984 21.6644 7.07231 21.5296 7.16723 21.3498L8.24098 19.3158C8.3359 19.136 8.35551 18.9259 8.29548 18.7316C8.23546 18.5373 8.10071 18.3749 7.9209 18.2799ZM18.28 15.0791C18.1851 15.259 18.1654 15.4691 18.2255 15.6634C18.2855 15.8577 18.4202 16.0201 18.6001 16.1151L20.634 17.1888C20.8139 17.2837 21.024 17.3033 21.2183 17.2433C21.4125 17.1833 21.575 17.0485 21.6699 16.8687C21.7649 16.6889 21.7845 16.4787 21.7244 16.2845C21.6644 16.0902 21.5297 15.9277 21.3499 15.8328L19.3159 14.7591C19.1361 14.6641 18.9259 14.6445 18.7316 14.7046C18.5374 14.7646 18.3749 14.8993 18.28 15.0791ZM15.8329 1.65018L14.7591 3.68416C14.6642 3.86397 14.6446 4.07413 14.7046 4.2684C14.7646 4.46268 14.8994 4.62514 15.0792 4.72007C15.259 4.81499 15.4692 4.8346 15.6634 4.77457C15.8577 4.71455 16.0202 4.5798 16.1151 4.39999L17.1888 2.36601C17.2838 2.18619 17.3034 1.97603 17.2433 1.78176C17.1833 1.58749 17.0486 1.42502 16.8688 1.3301C16.6889 1.23517 16.4788 1.21557 16.2845 1.2756C16.0902 1.33562 15.9278 1.47036 15.8329 1.65018Z" fill="#8C41D7"/>
</svg>
