<svg width="34" height="31" viewBox="0 0 34 31" fill="none" xmlns="http://www.w3.org/2000/svg">
<path d="M13.1111 12.537C13.792 12.537 14.4663 12.4029 15.0954 12.1423C15.7245 11.8818 16.2961 11.4998 16.7776 11.0183C17.2591 10.5368 17.641 9.96523 17.9016 9.33613C18.1622 8.70704 18.2963 8.03278 18.2963 7.35185C18.2963 6.67092 18.1622 5.99666 17.9016 5.36756C17.641 4.73847 17.2591 4.16686 16.7776 3.68537C16.2961 3.20388 15.7245 2.82194 15.0954 2.56136C14.4663 2.30078 13.792 2.16666 13.1111 2.16666C11.7359 2.16666 10.417 2.71296 9.44464 3.68537C8.47223 4.65778 7.92593 5.97665 7.92593 7.35185C7.92593 8.72705 8.47223 10.0459 9.44464 11.0183C10.417 11.9907 11.7359 12.537 13.1111 12.537Z" fill="#4331B5"/>
<path d="M2 27.9444V28.8333H24.2222V27.9444C24.2222 24.6259 24.2222 22.9667 23.5763 21.6985C23.0082 20.5835 22.1017 19.677 20.9867 19.1089C19.7185 18.463 18.0593 18.463 14.7408 18.463H11.4815C8.16297 18.463 6.50371 18.463 5.23556 19.1089C4.12057 19.677 3.21406 20.5835 2.64593 21.6985C2 22.9667 2 24.6259 2 27.9444Z" fill="#4331B5"/>
<path d="M23.1911 2.9074C23.958 3.36831 24.5924 4.01989 25.0327 4.79874C25.473 5.57758 25.7042 6.45716 25.7037 7.35185C25.7042 8.24654 25.473 9.12611 25.0327 9.90496C24.5924 10.6838 23.958 11.3354 23.1911 11.7963M31.6297 28.8333V27.9444C31.6297 24.6259 31.6296 22.9667 30.9837 21.6985C30.4156 20.5835 29.5091 19.677 28.3941 19.1089M13.1111 12.537C13.792 12.537 14.4663 12.4029 15.0954 12.1423C15.7245 11.8818 16.2961 11.4998 16.7776 11.0183C17.2591 10.5368 17.641 9.96523 17.9016 9.33613C18.1622 8.70704 18.2963 8.03278 18.2963 7.35185C18.2963 6.67092 18.1622 5.99666 17.9016 5.36756C17.641 4.73847 17.2591 4.16686 16.7776 3.68537C16.2961 3.20388 15.7245 2.82194 15.0954 2.56136C14.4663 2.30078 13.792 2.16666 13.1111 2.16666C11.7359 2.16666 10.417 2.71296 9.44464 3.68537C8.47223 4.65778 7.92593 5.97665 7.92593 7.35185C7.92593 8.72705 8.47223 10.0459 9.44464 11.0183C10.417 11.9907 11.7359 12.537 13.1111 12.537ZM2 27.9444V28.8333H24.2222V27.9444C24.2222 24.6259 24.2222 22.9667 23.5763 21.6985C23.0082 20.5835 22.1017 19.677 20.9867 19.1089C19.7185 18.463 18.0593 18.463 14.7408 18.463H11.4815C8.16297 18.463 6.50371 18.463 5.23556 19.1089C4.12057 19.677 3.21406 20.5835 2.64593 21.6985C2 22.9667 2 24.6259 2 27.9444Z" stroke="#4331B5" stroke-width="4" stroke-linecap="round" stroke-linejoin="round"/>
</svg>
