<svg width="33" height="29" viewBox="0 0 33 29" fill="none" xmlns="http://www.w3.org/2000/svg">
<path d="M17.3342 15.2778L13.4453 21.5H19.6675L15.7786 27.7222" stroke="#AD28B0" stroke-width="1.5" stroke-linecap="round" stroke-linejoin="round"/>
<path d="M4.11133 16.0556V15.2778C4.11133 7.54667 9.68333 1.27778 16.5558 1.27778C23.4282 1.27778 29.0002 7.54667 29.0002 15.2778V16.0556" stroke="#AD28B0" stroke-width="1.5" stroke-linecap="round" stroke-linejoin="round"/>
<path d="M1 22.1813V19.2615C1.00011 18.5677 1.23209 17.8939 1.6591 17.3471C2.0861 16.8003 2.68361 16.412 3.35667 16.2437L4.11111 16.0555L6.06178 15.5671C6.19942 15.5325 6.34312 15.5298 6.48195 15.5592C6.62079 15.5886 6.75111 15.6492 6.86299 15.7365C6.97487 15.8238 7.06538 15.9354 7.12763 16.0629C7.18988 16.1905 7.22223 16.3305 7.22222 16.4724V24.9704C7.22223 25.1123 7.18988 25.2523 7.12763 25.3799C7.06538 25.5074 6.97487 25.619 6.86299 25.7063C6.75111 25.7936 6.62079 25.8542 6.48195 25.8836C6.34312 25.913 6.19942 25.9103 6.06178 25.8757L3.35511 25.2006C2.68208 25.032 2.08473 24.6433 1.658 24.0962C1.23128 23.5491 0.999672 22.8751 1 22.1813ZM32.1111 22.1813V19.2615C32.111 18.5677 31.879 17.8939 31.452 17.3471C31.025 16.8003 30.4275 16.412 29.7544 16.2437L29 16.0555L27.0478 15.5671C26.9102 15.5328 26.7667 15.5303 26.6281 15.5598C26.4894 15.5893 26.3593 15.65 26.2476 15.7372C26.1359 15.8245 26.0456 15.936 25.9834 16.0634C25.9213 16.1908 25.8889 16.3307 25.8889 16.4724V24.9704C25.8889 25.1121 25.9213 25.252 25.9834 25.3794C26.0456 25.5068 26.1359 25.6183 26.2476 25.7056C26.3593 25.7928 26.4894 25.8535 26.6281 25.883C26.7667 25.9125 26.9102 25.91 27.0478 25.8757L29.7544 25.2006C30.4277 25.0323 31.0254 24.6437 31.4525 24.0966C31.8795 23.5495 32.1113 22.8753 32.1111 22.1813Z" fill="#AD28B0" stroke="#AD28B0" stroke-width="1.5" stroke-linecap="round" stroke-linejoin="round"/>
</svg>
