<svg width="30" height="31" viewBox="0 0 30 31" fill="none" xmlns="http://www.w3.org/2000/svg">
<path d="M18.0469 26.3885H28.9355M18.0469 20.1665H28.9355M22.7135 4.61117H28.9355M25.8242 1.49981V7.72179" stroke="#8C41D7" stroke-width="2" stroke-linecap="round" stroke-linejoin="round"/>
<path d="M6.38093 29.4998C7.10126 29.5083 7.81609 29.3737 8.48403 29.1038C9.15196 28.834 9.75971 28.4343 10.2721 27.928C10.7844 27.4216 11.1912 26.8185 11.4688 26.1538C11.7464 25.4891 11.8894 24.7759 11.8894 24.0555C11.8894 23.3351 11.7464 22.6219 11.4688 21.9572C11.1912 21.2925 10.7844 20.6894 10.2721 20.183C9.75971 19.6767 9.15196 19.277 8.48403 19.0071C7.81609 18.7373 7.10126 18.6027 6.38093 18.6112C4.94805 18.628 3.57956 19.2089 2.57224 20.2281C1.56492 21.2473 1 22.6225 1 24.0555C1 25.4885 1.56492 26.8637 2.57224 27.8829C3.57956 28.9021 4.94805 29.483 6.38093 29.4998Z" fill="#8C41D7" stroke="#8C41D7" stroke-width="2" stroke-linecap="round" stroke-linejoin="round"/>
<path d="M18.0469 12.3885C18.3648 11.881 18.577 11.3145 18.6708 10.7231C18.7646 10.1316 18.7381 9.52733 18.5928 8.94638C18.4475 8.36543 18.1865 7.81978 17.8253 7.34211C17.4641 6.86444 17.0103 6.46458 16.4909 6.16648C14.796 4.75682 13.2339 3.19473 11.8242 1.49981V24.0551" stroke="#8C41D7" stroke-width="2" stroke-linecap="round" stroke-linejoin="round"/>
</svg>
