<svg width="38" height="31" viewBox="0 0 38 31" fill="none" xmlns="http://www.w3.org/2000/svg">
<path d="M16.5681 12.7729C16.5681 12.0192 15.9832 11.408 15.2613 11.408H12.3365C12.9458 8.29566 15.5838 5.95579 18.7486 5.95579C21.9135 5.95579 24.5514 8.29941 25.1589 11.4117H20.4923C19.7705 11.4117 19.1855 12.0211 19.1855 12.7729C19.1855 13.5266 19.7705 14.1379 20.4923 14.1379H25.2883V16.864H20.4923C19.7705 16.864 19.1855 17.4752 19.1855 18.227C19.1855 18.9807 19.7705 19.5919 20.4923 19.5919H25.1589C24.6377 22.2637 22.6203 24.3673 20.0573 24.9092V29.1371C20.0573 29.8889 19.4705 30.5001 18.7486 30.5001C18.0268 30.5001 17.44 29.8889 17.44 29.1371V24.9092C14.877 24.3654 12.8596 22.2637 12.3402 19.5919H15.2594C15.9832 19.5919 16.5681 18.9807 16.5681 18.227C16.5681 17.4752 15.9832 16.864 15.2613 16.864H12.209V14.1379H15.2594C15.9832 14.1379 16.5681 13.5266 16.5681 12.7748" fill="#31B595"/>
<path d="M18.749 0.5C12.5056 0.5 7.39836 5.56411 7.00088 11.9669C6.32397 11.5998 5.56604 11.4077 4.796 11.4082C2.14676 11.4082 0 13.6468 0 16.4085V20.0458C0 22.8057 2.14676 25.0443 4.796 25.0443C4.88599 25.0443 4.97599 25.0406 5.06411 25.0368V25.0443C7.56522 25.0443 9.59199 22.9313 9.59199 20.3233V12.7712C9.59199 7.50088 13.6924 3.22798 18.749 3.22798C23.8056 3.22798 27.906 7.50088 27.906 12.7712V20.3233C27.906 22.9294 29.9309 25.0443 32.4339 25.0443V25.0368C32.522 25.0424 32.612 25.0443 32.702 25.0443C35.3512 25.0443 37.498 22.8057 37.498 20.044V16.4067C37.498 13.6468 35.3512 11.4082 32.702 11.4082C31.9071 11.4082 31.1571 11.6107 30.4971 11.9669C30.0997 5.56411 24.9905 0.5 18.749 0.5Z" fill="#31B595"/>
</svg>
